<svg width="474" height="74" xmlns="http://www.w3.org/2000/svg" xmlns:xlink="http://www.w3.org/1999/xlink"><defs><path id="a" d="M330.424 0h143.073v74H330.424z"/><mask id="b" x="0" y="0" width="143.073" height="74" fill="#fff"><use xlink:href="#a"/></mask></defs><g fill="none" fill-rule="evenodd"><path fill="#ECECEC" d="M335.927 2.741h130.316V71.26H335.927z"/><path fill="#212121" d="M0 0h341.429v74H0zm354.716 18.6h10.752c2.762 0 5.292.336 7.588 1.008 2.296.672 4.265 1.736 5.908 3.192 1.642 1.456 2.92 3.323 3.836 5.6.914 2.277 1.372 5.021 1.372 8.232 0 3.21-.448 5.973-1.344 8.288-.896 2.315-2.156 4.219-3.78 5.712-1.624 1.493-3.547 2.595-5.768 3.304-2.222.71-4.639 1.064-7.252 1.064h-11.312V18.6zm10.192 28.672c1.306 0 2.538-.159 3.696-.476a7.048 7.048 0 0 0 2.996-1.652c.84-.784 1.502-1.867 1.988-3.248.485-1.381.728-3.136.728-5.264s-.243-3.864-.728-5.208c-.486-1.344-1.148-2.39-1.988-3.136-.84-.747-1.839-1.26-2.996-1.54-1.158-.28-2.39-.42-3.696-.42h-.56v20.944h.56zm25.76-28.672h23.52v8.064H400.3v5.712h11.872v8.064H400.3v6.496h14.448V55h-24.08V18.6zm26.544 0h10.192l3.808 15.904a88.22 88.22 0 0 1 1.344 5.74 94.862 94.862 0 0 0 1.344 5.796h.224c.522-1.979.98-3.91 1.372-5.796.392-1.885.83-3.799 1.316-5.74l3.696-15.904h9.856L439.612 55h-11.648l-10.752-36.4z"/><path d="M24.032 18.6h14.112c1.941 0 3.799.196 5.572.588 1.773.392 3.323 1.064 4.648 2.016 1.325.952 2.38 2.203 3.164 3.752.784 1.55 1.176 3.463 1.176 5.74 0 2.24-.401 4.163-1.204 5.768-.803 1.605-1.876 2.921-3.22 3.948-1.344 1.027-2.893 1.792-4.648 2.296a19.78 19.78 0 0 1-5.488.756h-4.48V55h-9.632V18.6zm13.664 17.248c1.904 0 3.313-.448 4.228-1.344.915-.896 1.372-2.165 1.372-3.808 0-1.643-.485-2.8-1.456-3.472-.97-.672-2.352-1.008-4.144-1.008h-4.032v9.632h4.032zM58.416 18.6h9.632v19.936c0 3.248.439 5.535 1.316 6.86.877 1.325 2.268 1.988 4.172 1.988s3.313-.663 4.228-1.988c.915-1.325 1.372-3.612 1.372-6.86V18.6h9.296v18.816c0 6.235-1.213 10.836-3.64 13.804s-6.179 4.452-11.256 4.452c-5.115 0-8.913-1.484-11.396-4.452-2.483-2.968-3.724-7.57-3.724-13.804V18.6zm37.856 0h9.856l8.064 16.24 3.472 8.176h.224a240.59 240.59 0 0 0-.392-3.192 98.652 98.652 0 0 1-.392-3.556 239.145 239.145 0 0 1-.308-3.64 45.68 45.68 0 0 1-.14-3.5V18.6h9.184V55h-9.856l-8.064-16.296-3.472-8.12h-.224c.224 2.09.485 4.368.784 6.832.299 2.464.448 4.816.448 7.056V55h-9.184V18.6zm37.632 0h9.632v13.552h.224l9.184-13.552h10.528l-10.864 14.784L165.6 55h-10.528l-8.064-14-3.472 4.928V55h-9.632V18.6zm56.56 16.576h3.472c3.883 0 5.824-1.605 5.824-4.816 0-1.568-.495-2.65-1.484-3.248-.99-.597-2.436-.896-4.34-.896h-3.472v8.96zM200.432 55l-6.272-12.208h-3.696V55h-9.632V18.6h13.776c1.941 0 3.799.187 5.572.56 1.773.373 3.323 1.008 4.648 1.904 1.325.896 2.38 2.1 3.164 3.612.784 1.512 1.176 3.407 1.176 5.684 0 2.613-.532 4.779-1.596 6.496a11.26 11.26 0 0 1-4.284 4.032L211.184 55h-10.752zm31.024.672c-2.539 0-4.844-.43-6.916-1.288a14.68 14.68 0 0 1-5.32-3.724c-1.475-1.624-2.623-3.621-3.444-5.992-.821-2.37-1.232-5.05-1.232-8.036 0-2.987.41-5.647 1.232-7.98.821-2.333 1.97-4.293 3.444-5.88 1.475-1.587 3.248-2.79 5.32-3.612 2.072-.821 4.377-1.232 6.916-1.232 2.501 0 4.797.41 6.888 1.232 2.09.821 3.873 2.035 5.348 3.64 1.475 1.605 2.623 3.565 3.444 5.88.821 2.315 1.232 4.965 1.232 7.952s-.41 5.665-1.232 8.036c-.821 2.37-1.97 4.368-3.444 5.992-1.475 1.624-3.257 2.865-5.348 3.724-2.09.859-4.387 1.288-6.888 1.288zm0-8.288c2.203 0 3.93-.961 5.18-2.884 1.25-1.923 1.876-4.545 1.876-7.868 0-3.323-.625-5.89-1.876-7.7-1.25-1.81-2.977-2.716-5.18-2.716s-3.93.905-5.18 2.716c-1.25 1.81-1.876 4.377-1.876 7.7 0 3.323.625 5.945 1.876 7.868 1.25 1.923 2.977 2.884 5.18 2.884zm21.84-10.304c0-3.061.485-5.777 1.456-8.148.97-2.37 2.277-4.368 3.92-5.992a16.968 16.968 0 0 1 5.684-3.724 18.002 18.002 0 0 1 6.748-1.288c2.315 0 4.415.476 6.3 1.428 1.885.952 3.481 2.081 4.788 3.388l-5.264 5.936c-.896-.784-1.773-1.39-2.632-1.82-.859-.43-1.885-.644-3.08-.644a6.97 6.97 0 0 0-3.108.728 7.62 7.62 0 0 0-2.576 2.072c-.728.896-1.307 1.997-1.736 3.304-.43 1.307-.644 2.781-.644 4.424 0 3.435.719 6.067 2.156 7.896 1.437 1.83 3.332 2.744 5.684 2.744 1.419 0 2.641-.27 3.668-.812a9.91 9.91 0 0 0 2.716-2.1l5.264 5.824c-1.568 1.792-3.36 3.136-5.376 4.032a15.545 15.545 0 0 1-6.384 1.344c-2.39 0-4.648-.383-6.776-1.148a15.543 15.543 0 0 1-5.6-3.472c-1.605-1.55-2.875-3.49-3.808-5.824-.933-2.333-1.4-5.05-1.4-8.148zM287.68 18.6h9.632v13.552h.224L306.72 18.6h10.528l-10.864 14.784L319.376 55h-10.528l-8.064-14-3.472 4.928V55h-9.632V18.6z" fill="#ECECEC"/><use stroke="#212121" mask="url(#b)" stroke-width="20" xlink:href="#a"/></g></svg>